<svg width="16" height="16" viewBox="0 0 16 16" fill="none" xmlns="http://www.w3.org/2000/svg">
<rect opacity="0.01" width="16" height="16" fill="white"/>
<path d="M7.98016 1.66669C3.72216 1.66669 3.00283 2.28802 3.00283 7.28602C3.00283 12.8814 2.89816 14.3334 3.96216 14.3334C5.02549 14.3334 6.76216 11.8774 7.98016 11.8774C9.19816 11.8774 10.9348 14.3334 11.9981 14.3334C13.0621 14.3334 12.9575 12.8814 12.9575 7.28602C12.9575 2.28802 12.2381 1.66669 7.98016 1.66669V1.66669Z" fill="#F9D8D8"/>
<path fill-rule="evenodd" clip-rule="evenodd" d="M7.98019 1.16669C6.91261 1.16669 6.02551 1.20474 5.30589 1.35202C4.57721 1.50114 3.97667 1.77074 3.52549 2.26501C3.07962 2.75345 2.83154 3.40497 2.68935 4.21279C2.54741 5.01917 2.50285 6.03159 2.50285 7.28602C2.50285 7.7701 2.50203 8.22458 2.50126 8.65094L2.50126 8.65109C2.49762 10.6676 2.49511 12.0538 2.58603 12.958C2.64027 13.4974 2.73382 13.9553 2.93949 14.2842C3.05011 14.461 3.19701 14.6076 3.38775 14.7052C3.57509 14.801 3.77287 14.8334 3.96219 14.8334C4.39471 14.8334 4.81409 14.5954 5.15262 14.3602C5.48276 14.1309 5.83026 13.8339 6.15894 13.553L6.15993 13.5522L6.2378 13.4856C6.60107 13.1756 6.94227 12.8893 7.26247 12.6791C7.59461 12.461 7.82808 12.3774 7.98019 12.3774C8.13229 12.3774 8.36577 12.461 8.6979 12.6791C9.0181 12.8893 9.35927 13.1756 9.72261 13.4856L9.8004 13.5522L9.80185 13.5534C10.1304 13.8342 10.4778 14.131 10.8077 14.3602C11.1463 14.5954 11.5657 14.8334 11.9982 14.8334C12.1875 14.8334 12.3853 14.801 12.5726 14.7052C12.7633 14.6076 12.9103 14.461 13.0209 14.2842C13.2265 13.9553 13.3201 13.4974 13.3743 12.958C13.4652 12.0544 13.4627 10.6693 13.4591 8.65487L13.4591 8.65109C13.4583 8.22469 13.4575 7.77015 13.4575 7.28602C13.4575 6.03159 13.4129 5.01917 13.271 4.21279C13.1288 3.40497 12.8807 2.75345 12.4349 2.26501C11.9837 1.77074 11.3831 1.50114 10.6545 1.35202C9.93487 1.20474 9.04777 1.16669 7.98019 1.16669ZM3.50285 7.28602C3.50285 6.04145 3.54821 5.10196 3.67421 4.38615C3.79995 3.67178 3.99783 3.23083 4.26405 2.93919C4.52495 2.65338 4.90262 2.45527 5.50639 2.33171C6.11919 2.2063 6.91877 2.16669 7.98019 2.16669C9.04161 2.16669 9.84121 2.2063 10.454 2.33171C11.0577 2.45527 11.4354 2.65338 11.6963 2.93919C11.9625 3.23083 12.1604 3.67178 12.2861 4.38615C12.4121 5.10196 12.4575 6.04145 12.4575 7.28602C12.4575 7.78194 12.4583 8.24382 12.459 8.67395C12.4625 10.6912 12.4647 12.0094 12.3793 12.8579C12.3268 13.3809 12.247 13.6357 12.173 13.754C12.1438 13.8006 12.1243 13.8112 12.1171 13.8149C12.1065 13.8204 12.0749 13.8334 11.9982 13.8334C11.899 13.8334 11.7026 13.7643 11.3783 13.539C11.0911 13.3394 10.7803 13.0739 10.4391 12.7825L10.4386 12.7821L10.3718 12.7251C10.0157 12.4212 9.62794 12.0934 9.24674 11.8432C8.87744 11.6007 8.43708 11.3774 7.98019 11.3774C7.52329 11.3774 7.08293 11.6007 6.71365 11.8432C6.33243 12.0934 5.94463 12.4212 5.58857 12.7251L5.52175 12.7822L5.52036 12.7833C5.17953 13.0744 4.86905 13.3396 4.58201 13.539C4.25778 13.7643 4.06134 13.8334 3.96219 13.8334C3.88551 13.8334 3.85381 13.8204 3.84321 13.8149C3.83603 13.8112 3.81654 13.8006 3.78733 13.754C3.71339 13.6357 3.6336 13.3809 3.58101 12.8579C3.49568 12.0094 3.49792 10.6913 3.50134 8.67436L3.50134 8.67402C3.50207 8.24389 3.50285 7.78194 3.50285 7.28602ZM5.69501 5.64515C5.41886 5.64515 5.19501 5.86901 5.19501 6.14515C5.19501 6.42129 5.41886 6.64515 5.69501 6.64515H10.265C10.5411 6.64515 10.765 6.42129 10.765 6.14515C10.765 5.86901 10.5411 5.64515 10.265 5.64515H5.69501Z" fill="#E23E3E"/>
</svg>
