<svg width="32" height="32" viewBox="0 0 32 32" fill="none" xmlns="http://www.w3.org/2000/svg">
<g clip-path="url(#clip0_1_2824)">
<path fill-rule="evenodd" clip-rule="evenodd" d="M2.66669 16C2.66669 8.65336 8.65336 2.66669 16 2.66669C23.3467 2.66669 29.3334 8.65336 29.3334 16C29.3334 23.3467 23.3467 29.3334 16 29.3334C8.65336 29.3334 2.66669 23.3467 2.66669 16ZM14.8134 20.4934L22.3734 12.9334C22.76 12.5334 22.76 11.9067 22.3734 11.52C21.9867 11.1334 21.3467 11.1334 20.96 11.52L14.1067 18.3734L11.04 15.3067C10.6534 14.92 10.0134 14.92 9.62669 15.3067C9.24002 15.6934 9.24002 16.3334 9.62669 16.72L13.4 20.4934C13.5867 20.68 13.84 20.7867 14.1067 20.7867C14.3734 20.7867 14.6267 20.68 14.8134 20.4934Z" fill="#E23E3E"/>
</g>
<defs>
<clipPath id="clip0_1_2824">
<rect width="29.3333" height="29.3333" fill="white" transform="translate(2.66669 2.66669)"/>
</clipPath>
</defs>
</svg>
